<?xml version="1.0" standalone="no"?><!DOCTYPE svg PUBLIC "-//W3C//DTD SVG 1.1//EN" "http://www.w3.org/Graphics/SVG/1.1/DTD/svg11.dtd"><svg t="1621414014886" class="icon" viewBox="0 0 1024 1024" version="1.1" xmlns="http://www.w3.org/2000/svg" p-id="88523" width="32" height="32" xmlns:xlink="http://www.w3.org/1999/xlink"><defs><style type="text/css">html, * { user-select: text !important; }
</style></defs><path d="M939.2 420.8C915.2 396.8 881.6 384 848 384c-17.6 0-35.2 3.2-49.6 9.6l-152-152c20.8-48 9.6-104-27.2-140.8C595.2 76.8 561.6 64 528 64c-60.8 0-113.6 43.2-124.8 102.4-11.2 59.2 20.8 120 76.8 144 4.8 1.6 11.2 4.8 16 4.8v393.6c-16 4.8-30.4 11.2-44.8 20.8l-142.4-142.4c1.6-1.6 3.2-3.2 4.8-6.4 33.6-51.2 27.2-118.4-16-161.6-22.4-22.4-56-35.2-89.6-35.2-60.8 0-113.6 43.2-124.8 102.4-11.2 59.2 20.8 120 76.8 144 33.6 14.4 68.8 12.8 100.8-1.6l152 152c-3.2 8-6.4 17.6-8 27.2-11.2 59.2 20.8 120 76.8 144s121.6 3.2 155.2-46.4c33.6-51.2 27.2-118.4-16-161.6-16-16-36.8-27.2-59.2-33.6V315.2c16-4.8 32-11.2 46.4-22.4l140.8 140.8c-11.2 16-20.8 33.6-24 52.8-11.2 59.2 20.8 120 76.8 144s121.6 3.2 155.2-46.4c32-51.2 25.6-118.4-17.6-163.2zM468.8 168C478.4 144 502.4 128 528 128s49.6 16 59.2 40c9.6 24 4.8 51.2-14.4 70.4-25.6 25.6-65.6 25.6-91.2 0-17.6-19.2-22.4-46.4-12.8-70.4zM163.2 556.8C144 539.2 139.2 512 148.8 488S182.4 448 208 448c17.6 0 33.6 6.4 44.8 19.2 25.6 25.6 25.6 65.6 0 91.2-24 24-65.6 24-89.6-1.6z m424 300.8c-9.6 24-33.6 40-59.2 40s-49.6-16-59.2-40c-9.6-24-4.8-51.2 14.4-70.4C496 776 512 768 528 768c17.6 0 33.6 6.4 44.8 19.2 19.2 19.2 24 46.4 14.4 70.4z m305.6-300.8c-25.6 25.6-65.6 25.6-91.2 0-17.6-17.6-24-46.4-14.4-70.4 11.2-22.4 35.2-38.4 60.8-38.4 25.6 0 49.6 16 59.2 40s4.8 51.2-14.4 68.8z" p-id="88524" fill="#515151"></path></svg>